<svg xmlns:xlink="http://www.w3.org/1999/xlink" height="600" width="750" xmlns="http://www.w3.org/2000/svg" style="font-family:'lucida grande', 'lucida sans unicode', arial, helvetica, sans-serif;font-size:12px;" version="1.1"><desc>Created with Highcharts 4.0.3</desc><defs><clipPath id="highcharts-8"><rect height="213" width="9999" y="8" x="0"></rect></clipPath><clipPath id="highcharts-9"><rect height="170" width="695" y="0" x="0"></rect></clipPath></defs><rect class=" highcharts-background" fill="#FFFFFF" strokeWidth="0" height="600" width="750" y="0" x="0"></rect><rect fill="#FFFFFF" height="170" width="695" y="50" x="45"></rect><text style="color:#000000;font-size:12px;fill:#000000;" transform="translate(0,0)" y="15" x="20"></text><text style="color:#000000;font-size:12px;fill:#000000;" transform="translate(0,0)" y="525" x="20"></text><text style="color:#000000;font-size:12px;fill:#000000;" transform="translate(0,0)" y="565" x="20"><tspan>Source: World Development Indicators</tspan></text><text style="color:#000000;font-size:12px;fill:#000000;" transform="translate(0,0)" y="545" x="20"><tspan>Country : Uganda</tspan></text><text style="color:#000000;font-size:12px;fill:#000000;" transform="translate(0,0)" y="585" x="20"><tspan>Created on: 09/03/2015</tspan></text><g  class="highcharts-grid"></g><g  class="highcharts-grid"><path opacity="1"  stroke-width="1" stroke="#C0C0C0" d="M 45 49.5 L 740 49.5" fill="none"></path><path opacity="1"  stroke-width="1" stroke="#C0C0C0" d="M 45 107.5 L 740 107.5" fill="none"></path><path opacity="1"  stroke-width="1" stroke="#C0C0C0" d="M 45 163.5 L 740 163.5" fill="none"></path><path opacity="1"  stroke-width="1" stroke="#C0C0C0" d="M 45 220.5 L 740 220.5" fill="none"></path></g><g  class="highcharts-axis"><path opacity="1" stroke-width="1" stroke="#C0D0E0" d="M 189.5 220 L 189.5 230" fill="none"></path><path opacity="1" stroke-width="1" stroke="#C0D0E0" d="M 305.5 220 L 305.5 230" fill="none"></path><path opacity="1" stroke-width="1" stroke="#C0D0E0" d="M 420.5 220 L 420.5 230" fill="none"></path><path opacity="1" stroke-width="1" stroke="#C0D0E0" d="M 536.5 220 L 536.5 230" fill="none"></path><path opacity="1" stroke-width="1" stroke="#C0D0E0" d="M 652.5 220 L 652.5 230" fill="none"></path><path opacity="1" stroke-width="1" stroke="#C0D0E0" d="M 73.5 220 L 73.5 230" fill="none"></path><path visibility="visible"  stroke-width="1" stroke="#FFFFFF" d="M 45 220.5 L 740 220.5" fill="none"></path></g><g  class="highcharts-axis"></g><g  class="highcharts-series-group"><g clip-path="url(#highcharts-9)" transform="translate(45,50) scale(1 1)"  visibility="visible" class="highcharts-series"><path stroke-linecap="round" stroke-linejoin="round"  stroke-width="2" stroke="#4572A7" d="M 28.958333333333332 127.30257900000001 L 86.875 89.10470099999999 L 144.79166666666666 63.892409 L 202.70833333333334 58.30208366666666 L 260.625 52.53710033333333 L 318.54166666666663 46.58680566666666 L 376.4583333333333 40.435474666666664 L 434.37499999999994 34.072459666666674 L 492.29166666666663 27.494304 L 550.2083333333334 20.706793333333337 L 608.125 13.719702666666649 L 666.0416666666666 6.5471306666666464" fill="none"></path></g><g clip-path="none" transform="translate(45,50) scale(1 1)"  visibility="visible" class="highcharts-markers"><path stroke-width="2" stroke="#4572A7" d="M 666 4.5471306666666464 C 668.664 4.5471306666666464 668.664 8.547130666666646 666 8.547130666666646 C 663.336 8.547130666666646 663.336 4.5471306666666464 666 4.5471306666666464 Z" fill="#4572A7"></path><path stroke-width="2" stroke="#4572A7" d="M 608 11.719702666666649 C 610.664 11.719702666666649 610.664 15.719702666666649 608 15.719702666666649 C 605.336 15.719702666666649 605.336 11.719702666666649 608 11.719702666666649 Z" fill="#4572A7"></path><path stroke-width="2" stroke="#4572A7" d="M 550 18.706793333333337 C 552.664 18.706793333333337 552.664 22.706793333333337 550 22.706793333333337 C 547.336 22.706793333333337 547.336 18.706793333333337 550 18.706793333333337 Z" fill="#4572A7"></path><path stroke-width="2" stroke="#4572A7" d="M 492 25.494304 C 494.664 25.494304 494.664 29.494304 492 29.494304 C 489.336 29.494304 489.336 25.494304 492 25.494304 Z" fill="#4572A7"></path><path stroke-width="2" stroke="#4572A7" d="M 434 32.072459666666674 C 436.664 32.072459666666674 436.664 36.072459666666674 434 36.072459666666674 C 431.336 36.072459666666674 431.336 32.072459666666674 434 32.072459666666674 Z" fill="#4572A7"></path><path stroke-width="2" stroke="#4572A7" d="M 376 38.435474666666664 C 378.664 38.435474666666664 378.664 42.435474666666664 376 42.435474666666664 C 373.336 42.435474666666664 373.336 38.435474666666664 376 38.435474666666664 Z" fill="#4572A7"></path><path stroke-width="2" stroke="#4572A7" d="M 318 44.58680566666666 C 320.664 44.58680566666666 320.664 48.58680566666666 318 48.58680566666666 C 315.336 48.58680566666666 315.336 44.58680566666666 318 44.58680566666666 Z" fill="#4572A7"></path><path stroke-width="2" stroke="#4572A7" d="M 260 50.53710033333333 C 262.664 50.53710033333333 262.664 54.53710033333333 260 54.53710033333333 C 257.336 54.53710033333333 257.336 50.53710033333333 260 50.53710033333333 Z" fill="#4572A7"></path><path stroke-width="2" stroke="#4572A7" d="M 202 56.30208366666666 C 204.664 56.30208366666666 204.664 60.30208366666666 202 60.30208366666666 C 199.336 60.30208366666666 199.336 56.30208366666666 202 56.30208366666666 Z" fill="#4572A7"></path><path stroke-width="2" stroke="#4572A7" d="M 144 61.892409 C 146.664 61.892409 146.664 65.892409 144 65.892409 C 141.336 65.892409 141.336 61.892409 144 61.892409 Z" fill="#4572A7"></path><path stroke-width="2" stroke="#4572A7" d="M 86 87.10470099999999 C 88.664 87.10470099999999 88.664 91.10470099999999 86 91.10470099999999 C 83.336 91.10470099999999 83.336 87.10470099999999 86 87.10470099999999 Z" fill="#4572A7"></path><path stroke-width="2" stroke="#4572A7" d="M 28 125.30257900000001 C 30.664 125.30257900000001 30.664 129.302579 28 129.302579 C 25.336 129.302579 25.336 125.30257900000001 28 125.30257900000001 Z" fill="#4572A7"></path></g><g clip-path="url(#highcharts-9)" transform="translate(45,50) scale(1 1)"  visibility="hidden" class="highcharts-series"><path stroke-linecap="round" stroke-linejoin="round"  stroke-width="2" stroke="#AA4643" d="M 28.958333333333332 226.66664400000002 L 86.875 226.66664966666667 L 144.79166666666666 226.66664966666667 L 202.70833333333334 226.66664966666667 L 260.625 226.66664966666667 L 318.54166666666663 226.66664966666667 L 376.4583333333333 226.66664966666667 L 434.37499999999994 226.66664966666667 L 492.29166666666663 226.66664966666667 L 550.2083333333334 226.66664966666667 L 608.125 226.66664966666667 L 666.0416666666666 226.66664966666667" fill="none"></path></g><g clip-path="none" transform="translate(45,50) scale(1 1)"  visibility="hidden" class="highcharts-markers"></g><g clip-path="url(#highcharts-9)" transform="translate(45,50) scale(1 1)"  visibility="hidden" class="highcharts-series"><path stroke-linecap="round" stroke-linejoin="round"  stroke-width="2" stroke="#89A54E" d="M 28.958333333333332 225.29788333333335 L 86.875 225.29788333333335 L 144.79166666666666 225.29788333333335 L 202.70833333333334 225.29788333333335 L 260.625 225.29788333333335 L 318.54166666666663 225.29788333333335 L 376.4583333333333 225.29788333333335 L 434.37499999999994 225.29788333333335 L 492.29166666666663 225.29788333333335 L 550.2083333333334 225.29788333333335 L 608.125 225.29788333333335 L 666.0416666666666 225.29788333333335" fill="none"></path></g><g clip-path="none" transform="translate(45,50) scale(1 1)"  visibility="hidden" class="highcharts-markers"></g><g clip-path="url(#highcharts-9)" transform="translate(45,50) scale(1 1)"  visibility="hidden" class="highcharts-series"><path stroke-linecap="round" stroke-linejoin="round"  stroke-width="2" stroke="#80699B" d="M 28.958333333333332 226.666168 L 86.875 226.665981 L 144.79166666666666 226.66585066666667 L 202.70833333333334 226.66582233333332 L 260.625 226.665794 L 318.54166666666663 226.6657656666667 L 376.4583333333333 226.66573733333334 L 434.37499999999994 226.66570333333334 L 492.29166666666663 226.66566933333334 L 550.2083333333334 226.66563533333334 L 608.125 226.66560133333334 L 666.0416666666666 226.66556733333334" fill="none"></path></g><g clip-path="none" transform="translate(45,50) scale(1 1)"  visibility="hidden" class="highcharts-markers"></g><g clip-path="url(#highcharts-9)" transform="translate(45,50) scale(1 1)"  visibility="hidden" class="highcharts-series"><path stroke-linecap="round" stroke-linejoin="round"  stroke-width="2" stroke="#3D96AE" d="M 86.875 226.666474 L 144.79166666666666 226.666491" fill="none"></path></g><g clip-path="none" transform="translate(45,50) scale(1 1)"  visibility="hidden" class="highcharts-markers"></g><g clip-path="url(#highcharts-9)" transform="translate(45,50) scale(1 1)"  visibility="hidden" class="highcharts-series"></g><g clip-path="none" transform="translate(45,50) scale(1 1)"  visibility="hidden" class="highcharts-markers"></g><g clip-path="url(#highcharts-9)" transform="translate(45,50) scale(1 1)"  visibility="hidden" class="highcharts-series"><path stroke-linecap="round" stroke-linejoin="round"  stroke-width="2" stroke="#92A8CD" d="M 28.958333333333332 -31722.437370333333 L 86.875 -36031.12294 L 144.79166666666666 -47783.446558 L 202.70833333333334 -56167.02556566667 L 260.625 -64442.642594000004 L 318.54166666666663 -75006.22033033334 L 376.4583333333333 -88464.96096666667 L 434.37499999999994 -98469.52273333333 L 492.29166666666663 -110301.49748266667 L 550.2083333333334 -120588.09936433333 L 608.125 -127508.06753700001 L 666.0416666666666 -144667.595299" fill="none"></path></g><g clip-path="none" transform="translate(45,50) scale(1 1)"  visibility="hidden" class="highcharts-markers"></g><g clip-path="url(#highcharts-9)" transform="translate(45,50) scale(1 1)"  visibility="hidden" class="highcharts-series"><path stroke-linecap="round" stroke-linejoin="round"  stroke-width="2" stroke="#A47D7C" d="M 28.958333333333332 226.66485333333333 L 86.875 226.66519333333332 L 144.79166666666666 226.66502333333335 L 202.70833333333334 226.66479666666666 L 260.625 226.66457 L 318.54166666666663 226.66428666666667 L 376.4583333333333 226.66394666666667 L 434.37499999999994 226.66377666666668 L 492.29166666666663 226.66355 L 550.2083333333334 226.66332333333332 L 608.125 226.6632666666667 L 666.0416666666666 226.66292666666666" fill="none"></path></g><g clip-path="none" transform="translate(45,50) scale(1 1)"  visibility="hidden" class="highcharts-markers"></g><g clip-path="url(#highcharts-9)" transform="translate(45,50) scale(1 1)"  visibility="hidden" class="highcharts-series"><path stroke-linecap="round" stroke-linejoin="round"  stroke-width="2" stroke="#B5CA92" d="M 28.958333333333332 -48132.64164833334 L 86.875 -111366.00374900001 L 144.79166666666666 -171009.20153766667 L 202.70833333333334 -196216.90395133334 L 260.625 -219693.793916 L 318.54166666666663 -243797.32726700002 L 376.4583333333333 -263756.2633436667 L 434.37499999999994 -280650.36330566666 L 492.29166666666663 -314365.74344633333 L 550.2083333333334 -333570.6123306667 L 608.125 -346758.013009 L 666.0416666666666 -371864.7801326667" fill="none"></path></g><g clip-path="none" transform="translate(45,50) scale(1 1)"  visibility="hidden" class="highcharts-markers"></g><g clip-path="url(#highcharts-9)" transform="translate(45,50) scale(1 1)"  visibility="hidden" class="highcharts-series"><path stroke-linecap="round" stroke-linejoin="round"  stroke-width="2" stroke="#4572A7" d="M 28.958333333333332 226.66389 L 86.875 226.66207666666668 L 144.79166666666666 226.66071666666667 L 202.70833333333334 226.66003666666666 L 260.625 226.65952666666666 L 318.54166666666663 226.65896 L 376.4583333333333 226.65861999999998 L 434.37499999999994 226.65839333333332 L 492.29166666666663 226.65771333333333 L 550.2083333333334 226.65748666666667 L 608.125 226.65743 L 666.0416666666666 226.65709" fill="none"></path></g><g clip-path="none" transform="translate(45,50) scale(1 1)"  visibility="hidden" class="highcharts-markers"></g><g clip-path="url(#highcharts-9)" transform="translate(45,50) scale(1 1)"  visibility="hidden" class="highcharts-series"></g><g clip-path="none" transform="translate(45,50) scale(1 1)"  visibility="hidden" class="highcharts-markers"></g><g clip-path="url(#highcharts-9)" transform="translate(45,50) scale(1 1)"  visibility="hidden" class="highcharts-series"><path stroke-linecap="round" stroke-linejoin="round"  stroke-width="2" stroke="#89A54E" d="M 28.958333333333332 226.66639466666666 L 86.875 226.66639466666666 L 144.79166666666666 226.66636633333334 L 202.70833333333334 226.66636066666666 L 260.625 226.666355 L 318.54166666666663 226.66634933333333 L 376.4583333333333 226.66634933333333 L 434.37499999999994 226.66634366666668 L 492.29166666666663 226.666338 L 550.2083333333334 226.66633233333334 L 608.125 226.66633233333334" fill="none"></path></g><g clip-path="none" transform="translate(45,50) scale(1 1)"  visibility="hidden" class="highcharts-markers"></g><g clip-path="url(#highcharts-9)" transform="translate(45,50) scale(1 1)"  visibility="hidden" class="highcharts-series"><path stroke-linecap="round" stroke-linejoin="round"  stroke-width="2" stroke="#80699B" d="M 28.958333333333332 226.666627 L 86.875 226.666627 L 144.79166666666666 226.666627 L 202.70833333333334 226.666627 L 260.625 226.66663266666666 L 318.54166666666663 226.66663266666666 L 376.4583333333333 226.66663266666666 L 434.37499999999994 226.66663266666666 L 492.29166666666663 226.66663266666666 L 550.2083333333334 226.66663266666666 L 608.125 226.66663266666666" fill="none"></path></g><g clip-path="none" transform="translate(45,50) scale(1 1)"  visibility="hidden" class="highcharts-markers"></g><g clip-path="url(#highcharts-9)" transform="translate(45,50) scale(1 1)"  visibility="hidden" class="highcharts-series"><path stroke-linecap="round" stroke-linejoin="round"  stroke-width="2" stroke="#3D96AE" d="M 28.958333333333332 226.66556166666666 L 86.875 226.66564666666667 L 144.79166666666666 226.6657656666667 L 202.70833333333334 226.665794 L 260.625 226.66581666666667 L 318.54166666666663 226.665845 L 376.4583333333333 226.66586766666666 L 434.37499999999994 226.665896 L 492.29166666666663 226.66592433333335 L 550.2083333333334 226.66594700000002 L 608.125 226.66597533333334" fill="none"></path></g><g clip-path="none" transform="translate(45,50) scale(1 1)"  visibility="hidden" class="highcharts-markers"></g><g clip-path="url(#highcharts-9)" transform="translate(45,50) scale(1 1)"  visibility="hidden" class="highcharts-series"><path stroke-linecap="round" stroke-linejoin="round"  stroke-width="2" stroke="#DB843D" d="M 144.79166666666666 226.66655333333333 L 202.70833333333334 226.66653066666666" fill="none"></path></g><g clip-path="none" transform="translate(45,50) scale(1 1)"  visibility="hidden" class="highcharts-markers"></g><g clip-path="url(#highcharts-9)" transform="translate(45,50) scale(1 1)"  visibility="hidden" class="highcharts-series"></g><g clip-path="none" transform="translate(45,50) scale(1 1)"  visibility="hidden" class="highcharts-markers"></g><g clip-path="url(#highcharts-9)" transform="translate(45,50) scale(1 1)"  visibility="hidden" class="highcharts-series"><path stroke-linecap="round" stroke-linejoin="round"  stroke-width="2" stroke="#A47D7C" d="M 28.958333333333332 226.66565233333333 L 86.875 226.66583366666669 L 144.79166666666666 226.666049 L 202.70833333333334 226.66609433333332 L 260.625 226.66612833333335 L 318.54166666666663 226.66616233333332 L 376.4583333333333 226.66619633333335 L 434.37499999999994 226.66622466666666 L 492.29166666666663 226.66624733333333 L 550.2083333333334 226.66627566666668 L 608.125 226.66629266666666" fill="none"></path></g><g clip-path="none" transform="translate(45,50) scale(1 1)"  visibility="hidden" class="highcharts-markers"></g><g clip-path="url(#highcharts-9)" transform="translate(45,50) scale(1 1)"  visibility="hidden" class="highcharts-series"></g><g clip-path="none" transform="translate(45,50) scale(1 1)"  visibility="hidden" class="highcharts-markers"></g><g clip-path="url(#highcharts-9)" transform="translate(45,50) scale(1 1)"  visibility="hidden" class="highcharts-series"><path stroke-linecap="round" stroke-linejoin="round"  stroke-width="2" stroke="#4572A7" d="M 28.958333333333332 226.666372 L 86.875 226.66634366666668 L 144.79166666666666 226.66628133333333 L 202.70833333333334 226.66624166666668 L 260.625 226.66624166666668 L 318.54166666666663 226.66627 L 376.4583333333333 226.66623033333335 L 434.37499999999994 226.666253 L 492.29166666666663 226.66624166666668 L 550.2083333333334 226.666202 L 608.125 226.666202" fill="none"></path></g><g clip-path="none" transform="translate(45,50) scale(1 1)"  visibility="hidden" class="highcharts-markers"></g><g clip-path="url(#highcharts-9)" transform="translate(45,50) scale(1 1)"  visibility="hidden" class="highcharts-series"><path stroke-linecap="round" stroke-linejoin="round"  stroke-width="2" stroke="#AA4643" d="M 260.625 226.666372 L 318.54166666666663 226.66634366666668 L 376.4583333333333 226.66634366666668 L 434.37499999999994 226.666355 L 492.29166666666663 226.66636633333334" fill="none"></path></g><g clip-path="none" transform="translate(45,50) scale(1 1)"  visibility="hidden" class="highcharts-markers"></g><g clip-path="url(#highcharts-9)" transform="translate(45,50) scale(1 1)"  visibility="hidden" class="highcharts-series"><path stroke-linecap="round" stroke-linejoin="round"  stroke-width="2" stroke="#89A54E" d="M 28.958333333333332 226.66627 L 86.875 226.66593566666666 L 144.79166666666666 226.66598666666667 L 202.70833333333334 226.665998 L 260.625 226.66600366666665 L 318.54166666666663 226.66598666666667 L 376.4583333333333 226.66598666666667 L 434.37499999999994 226.66600366666665 L 492.29166666666663 226.66604333333333" fill="none"></path></g><g clip-path="none" transform="translate(45,50) scale(1 1)"  visibility="hidden" class="highcharts-markers"></g><g clip-path="url(#highcharts-9)" transform="translate(45,50) scale(1 1)"  visibility="hidden" class="highcharts-series"><path stroke-linecap="round" stroke-linejoin="round"  stroke-width="2" stroke="#80699B" d="M 28.958333333333332 226.66660433333334 L 86.875 226.666576 L 144.79166666666666 226.666559 L 202.70833333333334 226.66654766666667 L 260.625 226.66653066666666 L 318.54166666666663 226.666525 L 376.4583333333333 226.66651366666667 L 434.37499999999994 226.66651933333333 L 492.29166666666663 226.666525" fill="none"></path></g><g clip-path="none" transform="translate(45,50) scale(1 1)"  visibility="hidden" class="highcharts-markers"></g><g clip-path="url(#highcharts-9)" transform="translate(45,50) scale(1 1)"  visibility="hidden" class="highcharts-series"><path stroke-linecap="round" stroke-linejoin="round"  stroke-width="2" stroke="#3D96AE" d="M 28.958333333333332 226.66622466666666 L 86.875 226.66614533333333 L 144.79166666666666 226.66611699999999 L 202.70833333333334 226.66611133333333 L 260.625 226.66611133333333 L 318.54166666666663 226.66610566666668 L 376.4583333333333 226.66611133333333 L 434.37499999999994 226.66610566666668 L 492.29166666666663 226.66610566666668" fill="none"></path></g><g clip-path="none" transform="translate(45,50) scale(1 1)"  visibility="hidden" class="highcharts-markers"></g><g clip-path="url(#highcharts-9)" transform="translate(45,50) scale(1 1)"  visibility="hidden" class="highcharts-series"><path stroke-linecap="round" stroke-linejoin="round"  stroke-width="2" stroke="#DB843D" d="M 28.958333333333332 226.6665986666667 L 86.875 226.666627 L 144.79166666666666 226.66663266666666 L 202.70833333333334 226.66663266666666 L 260.625 226.66663266666666 L 318.54166666666663 226.666627 L 376.4583333333333 226.666627 L 434.37499999999994 226.666627 L 492.29166666666663 226.666627 L 550.2083333333334 226.666627 L 608.125 226.666627" fill="none"></path></g><g clip-path="none" transform="translate(45,50) scale(1 1)"  visibility="hidden" class="highcharts-markers"></g><g clip-path="url(#highcharts-9)" transform="translate(45,50) scale(1 1)"  visibility="hidden" class="highcharts-series"><path stroke-linecap="round" stroke-linejoin="round"  stroke-width="2" stroke="#92A8CD" d="M 28.958333333333332 226.39744333333334 L 86.875 226.44742333333335 L 144.79166666666666 226.47235666666666 L 202.70833333333334 226.47735466666666 L 260.625 226.48235266666666 L 318.54166666666663 226.48735066666666 L 376.4583333333333 226.49234866666666 L 434.37499999999994 226.49734666666666 L 492.29166666666663 226.50234466666666 L 550.2083333333334 226.50734266666666" fill="none"></path></g><g clip-path="none" transform="translate(45,50) scale(1 1)"  visibility="hidden" class="highcharts-markers"></g><g clip-path="url(#highcharts-9)" transform="translate(45,50) scale(1 1)"  visibility="hidden" class="highcharts-series"><path stroke-linecap="round" stroke-linejoin="round"  stroke-width="2" stroke="#A47D7C" d="M 28.958333333333332 226.66662133333335 L 86.875 226.66661566666667 L 144.79166666666666 226.66661 L 202.70833333333334 226.66661 L 260.625 226.66661 L 318.54166666666663 226.66661 L 376.4583333333333 226.66661 L 434.37499999999994 226.66660433333334" fill="none"></path></g><g clip-path="none" transform="translate(45,50) scale(1 1)"  visibility="hidden" class="highcharts-markers"></g><g clip-path="url(#highcharts-9)" transform="translate(45,50) scale(1 1)"  visibility="hidden" class="highcharts-series"></g><g clip-path="none" transform="translate(45,50) scale(1 1)"  visibility="hidden" class="highcharts-markers"></g><g clip-path="url(#highcharts-9)" transform="translate(45,50) scale(1 1)"  visibility="hidden" class="highcharts-series"><path stroke-linecap="round" stroke-linejoin="round"  stroke-width="2" stroke="#4572A7" d="M 28.958333333333332 226.66642866666666 L 86.875 226.66634366666668 L 144.79166666666666 226.666304 L 202.70833333333334 226.66629266666666 L 260.625 226.666287 L 318.54166666666663 226.66627566666668 L 376.4583333333333 226.66627 L 434.37499999999994 226.66625866666666 L 492.29166666666663 226.666253 L 550.2083333333334 226.66624166666668" fill="none"></path></g><g clip-path="none" transform="translate(45,50) scale(1 1)"  visibility="hidden" class="highcharts-markers"></g><g clip-path="url(#highcharts-9)" transform="translate(45,50) scale(1 1)"  visibility="hidden" class="highcharts-series"><path stroke-linecap="round" stroke-linejoin="round"  stroke-width="2" stroke="#AA4643" d="M 28.958333333333332 226.66651933333333 L 86.875 226.66649666666666 L 144.79166666666666 226.66648533333333 L 202.70833333333334 226.66648533333333 L 260.625 226.66648533333333 L 318.54166666666663 226.66647966666667 L 376.4583333333333 226.66647966666667 L 434.37499999999994 226.66647966666667 L 492.29166666666663 226.666474 L 550.2083333333334 226.666474" fill="none"></path></g><g clip-path="none" transform="translate(45,50) scale(1 1)"  visibility="hidden" class="highcharts-markers"></g><g clip-path="url(#highcharts-9)" transform="translate(45,50) scale(1 1)"  visibility="hidden" class="highcharts-series"><path stroke-linecap="round" stroke-linejoin="round"  stroke-width="2" stroke="#89A54E" d="M 28.958333333333332 226.666627 L 86.875 226.66664400000002 L 144.79166666666666 226.66663266666666 L 202.70833333333334 226.66663266666666 L 260.625 226.66663833333334 L 318.54166666666663 226.66663833333334 L 376.4583333333333 226.66663833333334 L 434.37499999999994 226.66663833333334 L 492.29166666666663 226.66663833333334 L 550.2083333333334 226.66663833333334 L 608.125 226.66663833333334 L 666.0416666666666 226.66663833333334" fill="none"></path></g><g clip-path="none" transform="translate(45,50) scale(1 1)"  visibility="hidden" class="highcharts-markers"></g><g clip-path="url(#highcharts-9)" transform="translate(45,50) scale(1 1)"  visibility="hidden" class="highcharts-series"></g><g clip-path="none" transform="translate(45,50) scale(1 1)"  visibility="hidden" class="highcharts-markers"></g><g clip-path="url(#highcharts-9)" transform="translate(45,50) scale(1 1)"  visibility="hidden" class="highcharts-series"><path stroke-linecap="round" stroke-linejoin="round"  stroke-width="2" stroke="#3D96AE" d="M 28.958333333333332 226.66666666666669 L 86.875 226.66666666666669 L 144.79166666666666 226.66666666666669 L 202.70833333333334 226.66666666666669 L 260.625 226.66666666666669 L 318.54166666666663 226.66666666666669 L 376.4583333333333 226.66666666666669 L 434.37499999999994 226.66666666666669 L 492.29166666666663 226.66666666666669" fill="none"></path></g><g clip-path="none" transform="translate(45,50) scale(1 1)"  visibility="hidden" class="highcharts-markers"></g><g clip-path="url(#highcharts-9)" transform="translate(45,50) scale(1 1)"  visibility="hidden" class="highcharts-series"></g><g clip-path="none" transform="translate(45,50) scale(1 1)"  visibility="hidden" class="highcharts-markers"></g><g clip-path="url(#highcharts-9)" transform="translate(45,50) scale(1 1)"  visibility="hidden" class="highcharts-series"><path stroke-linecap="round" stroke-linejoin="round"  stroke-width="2" stroke="#92A8CD" d="M 28.958333333333332 -24164.926907333334 L 86.875 -34868.398743 L 144.79166666666666 -50851.72811366667 L 202.70833333333334 -56114.720753333335 L 260.625 -69432.610417 L 318.54166666666663 -80461.15090333334 L 376.4583333333333 -96066.27246800001 L 434.37499999999994 -106328.49730733334 L 492.29166666666663 -105520.71255166667 L 550.2083333333334 -134213.55625233334 L 608.125 -139758.41494400002 L 666.0416666666666 -148876.92937233334" fill="none"></path></g><g clip-path="none" transform="translate(45,50) scale(1 1)"  visibility="hidden" class="highcharts-markers"></g><g clip-path="url(#highcharts-9)" transform="translate(45,50) scale(1 1)"  visibility="hidden" class="highcharts-series"><path stroke-linecap="round" stroke-linejoin="round"  stroke-width="2" stroke="#A47D7C" d="M 28.958333333333332 226.66663266666666 L 86.875 226.66664966666667 L 144.79166666666666 226.66663266666666 L 202.70833333333334 226.66660433333334 L 260.625 226.66662133333335 L 318.54166666666663 226.66661566666667 L 376.4583333333333 226.666627 L 434.37499999999994 226.66663833333334 L 492.29166666666663 226.66661 L 550.2083333333334 226.66664400000002 L 608.125 226.66664966666667 L 666.0416666666666 226.66663833333334" fill="none"></path></g><g clip-path="none" transform="translate(45,50) scale(1 1)"  visibility="hidden" class="highcharts-markers"></g><g clip-path="url(#highcharts-9)" transform="translate(45,50) scale(1 1)"  visibility="hidden" class="highcharts-series"><path stroke-linecap="round" stroke-linejoin="round"  stroke-width="2" stroke="#B5CA92" d="M 28.958333333333332 226.66641733333333 L 86.875 226.66660433333334 L 144.79166666666666 226.666678 L 202.70833333333334 226.66665533333332 L 260.625 226.666627 L 318.54166666666663 226.66663266666666 L 376.4583333333333 226.666491 L 434.37499999999994 226.666593 L 492.29166666666663 226.66663833333334 L 550.2083333333334 226.66654766666667 L 608.125 226.66664400000002 L 666.0416666666666 226.66665533333332" fill="none"></path></g><g clip-path="none" transform="translate(45,50) scale(1 1)"  visibility="hidden" class="highcharts-markers"></g><g clip-path="url(#highcharts-9)" transform="translate(45,50) scale(1 1)"  visibility="hidden" class="highcharts-series"><path stroke-linecap="round" stroke-linejoin="round"  stroke-width="2" stroke="#4572A7" d="M 28.958333333333332 226.66634366666668 L 86.875 226.66650233333334 L 144.79166666666666 226.66651366666667 L 202.70833333333334 226.66651933333333 L 260.625 226.66653066666666 L 318.54166666666663 226.66653633333334 L 376.4583333333333 226.666508" fill="none"></path></g><g clip-path="none" transform="translate(45,50) scale(1 1)"  visibility="hidden" class="highcharts-markers"></g><g clip-path="url(#highcharts-9)" transform="translate(45,50) scale(1 1)"  visibility="hidden" class="highcharts-series"><path stroke-linecap="round" stroke-linejoin="round"  stroke-width="2" stroke="#AA4643" d="M 28.958333333333332 226.66660433333334 L 86.875 226.66653633333334 L 144.79166666666666 226.666525 L 202.70833333333334 226.66653066666666 L 260.625 226.66651366666667 L 318.54166666666663 226.66651366666667 L 376.4583333333333 226.66655333333333" fill="none"></path></g><g clip-path="none" transform="translate(45,50) scale(1 1)"  visibility="hidden" class="highcharts-markers"></g><g clip-path="url(#highcharts-9)" transform="translate(45,50) scale(1 1)"  visibility="hidden" class="highcharts-series"><path stroke-linecap="round" stroke-linejoin="round"  stroke-width="2" stroke="#89A54E" d="M 28.958333333333332 226.66648533333333 L 86.875 226.66639466666666 L 144.79166666666666 226.66639466666666 L 202.70833333333334 226.66638333333333 L 260.625 226.66638333333333 L 318.54166666666663 226.66638333333333 L 376.4583333333333 226.666372" fill="none"></path></g><g clip-path="none" transform="translate(45,50) scale(1 1)"  visibility="hidden" class="highcharts-markers"></g><g clip-path="url(#highcharts-9)" transform="translate(45,50) scale(1 1)"  visibility="hidden" class="highcharts-series"><path stroke-linecap="round" stroke-linejoin="round"  stroke-width="2" stroke="#80699B" d="M 28.958333333333332 226.666627 L 86.875 226.66660433333334 L 144.79166666666666 226.66658733333333 L 202.70833333333334 226.66658166666667 L 260.625 226.66657033333334 L 318.54166666666663 226.66653066666666 L 376.4583333333333 226.66655333333333 L 434.37499999999994 226.66657033333334 L 492.29166666666663 226.66656466666666 L 550.2083333333334 226.66655333333333 L 608.125 226.66655333333333 L 666.0416666666666 226.66655333333333" fill="none"></path></g><g clip-path="none" transform="translate(45,50) scale(1 1)"  visibility="hidden" class="highcharts-markers"></g><g clip-path="url(#highcharts-9)" transform="translate(45,50) scale(1 1)"  visibility="hidden" class="highcharts-series"><path stroke-linecap="round" stroke-linejoin="round"  stroke-width="2" stroke="#3D96AE" d="M 28.958333333333332 226.666559 L 86.875 226.666542 L 144.79166666666666 226.666525 L 202.70833333333334 226.666508 L 260.625 226.66649666666666 L 318.54166666666663 226.66648533333333 L 376.4583333333333 226.66649666666666 L 434.37499999999994 226.666508 L 492.29166666666663 226.666474 L 550.2083333333334 226.66647966666667 L 608.125 226.66649666666666 L 666.0416666666666 226.66650233333334" fill="none"></path></g><g clip-path="none" transform="translate(45,50) scale(1 1)"  visibility="hidden" class="highcharts-markers"></g><g clip-path="url(#highcharts-9)" transform="translate(45,50) scale(1 1)"  visibility="hidden" class="highcharts-series"><path stroke-linecap="round" stroke-linejoin="round"  stroke-width="2" stroke="#DB843D" d="M 28.958333333333332 226.666593 L 86.875 226.666559 L 144.79166666666666 226.666542 L 202.70833333333334 226.66654766666667 L 260.625 226.666542 L 318.54166666666663 226.66653633333334 L 376.4583333333333 226.66651366666667 L 434.37499999999994 226.66651366666667 L 492.29166666666663 226.666508 L 550.2083333333334 226.666508 L 608.125 226.66649666666666 L 666.0416666666666 226.66650233333334" fill="none"></path></g><g clip-path="none" transform="translate(45,50) scale(1 1)"  visibility="hidden" class="highcharts-markers"></g><g clip-path="url(#highcharts-9)" transform="translate(45,50) scale(1 1)"  visibility="hidden" class="highcharts-series"><path stroke-linecap="round" stroke-linejoin="round"  stroke-width="2" stroke="#92A8CD" d="M 86.875 226.66660433333334 L 144.79166666666666 226.6665986666667 L 202.70833333333334 226.666593 L 260.625 226.666593 L 318.54166666666663 226.666593 L 376.4583333333333 226.66660433333334 L 434.37499999999994 226.66660433333334 L 492.29166666666663 226.66658733333333 L 550.2083333333334 226.66660433333334" fill="none"></path></g><g clip-path="none" transform="translate(45,50) scale(1 1)"  visibility="hidden" class="highcharts-markers"></g><g clip-path="url(#highcharts-9)" transform="translate(45,50) scale(1 1)"  visibility="hidden" class="highcharts-series"><path stroke-linecap="round" stroke-linejoin="round"  stroke-width="2" stroke="#A47D7C" d="M 86.875 226.666678 L 144.79166666666666 226.66667233333334 L 202.70833333333334 226.666678 L 260.625 226.666678 L 318.54166666666663 226.66667233333334 L 376.4583333333333 226.66667233333334 L 434.37499999999994 226.66668366666667 L 492.29166666666663 226.66668366666667 L 550.2083333333334 226.666678" fill="none"></path></g><g clip-path="none" transform="translate(45,50) scale(1 1)"  visibility="hidden" class="highcharts-markers"></g><g clip-path="url(#highcharts-9)" transform="translate(45,50) scale(1 1)"  visibility="hidden" class="highcharts-series"><path stroke-linecap="round" stroke-linejoin="round"  stroke-width="2" stroke="#B5CA92" d="M 144.79166666666666 226.666474 L 202.70833333333334 226.666508 L 260.625 226.666508 L 318.54166666666663 226.666525 L 376.4583333333333 226.666525 L 434.37499999999994 226.66653066666666 L 492.29166666666663 226.66647966666667 L 550.2083333333334 226.66647966666667 L 608.125 226.66648533333333 L 666.0416666666666 226.66648533333333" fill="none"></path></g><g clip-path="none" transform="translate(45,50) scale(1 1)"  visibility="hidden" class="highcharts-markers"></g><g clip-path="url(#highcharts-9)" transform="translate(45,50) scale(1 1)"  visibility="hidden" class="highcharts-series"><path stroke-linecap="round" stroke-linejoin="round"  stroke-width="2" stroke="#4572A7" d="M 86.875 226.6665986666667 L 144.79166666666666 226.66661566666667 L 202.70833333333334 226.66662133333335 L 260.625 226.66663833333334 L 318.54166666666663 226.6665986666667 L 376.4583333333333 226.66661 L 434.37499999999994 226.66658166666667 L 492.29166666666663 226.666576 L 550.2083333333334 226.66658733333333 L 608.125 226.66658733333333 L 666.0416666666666 226.66657033333334" fill="none"></path></g><g clip-path="none" transform="translate(45,50) scale(1 1)"  visibility="hidden" class="highcharts-markers"></g><g clip-path="url(#highcharts-9)" transform="translate(45,50) scale(1 1)"  visibility="hidden" class="highcharts-series"><path stroke-linecap="round" stroke-linejoin="round"  stroke-width="2" stroke="#AA4643" d="M 86.875 226.66661 L 144.79166666666666 226.6665986666667 L 202.70833333333334 226.6665986666667 L 260.625 226.6665986666667 L 318.54166666666663 226.666593 L 376.4583333333333 226.66660433333334 L 434.37499999999994 226.66661 L 492.29166666666663 226.666593 L 550.2083333333334 226.66660433333334" fill="none"></path></g><g clip-path="none" transform="translate(45,50) scale(1 1)"  visibility="hidden" class="highcharts-markers"></g><g clip-path="url(#highcharts-9)" transform="translate(45,50) scale(1 1)"  visibility="hidden" class="highcharts-series"><path stroke-linecap="round" stroke-linejoin="round"  stroke-width="2" stroke="#89A54E" d="M 28.958333333333332 226.66664966666667 L 86.875 226.66665533333332 L 144.79166666666666 226.66665533333332 L 202.70833333333334 226.66665533333332 L 260.625 226.66665533333332 L 318.54166666666663 226.66665533333332 L 376.4583333333333 226.66665533333332 L 434.37499999999994 226.66664966666667 L 492.29166666666663 226.66664966666667 L 550.2083333333334 226.666661 L 608.125 226.666661 L 666.0416666666666 226.666661" fill="none"></path></g><g clip-path="none" transform="translate(45,50) scale(1 1)"  visibility="hidden" class="highcharts-markers"></g><g clip-path="url(#highcharts-9)" transform="translate(45,50) scale(1 1)"  visibility="hidden" class="highcharts-series"><path stroke-linecap="round" stroke-linejoin="round"  stroke-width="2" stroke="#80699B" d="M 28.958333333333332 226.66666666666669 L 86.875 226.666661 L 144.79166666666666 226.66663833333334 L 202.70833333333334 226.666627 L 260.625 226.66658733333333 L 318.54166666666663 226.66651366666667 L 376.4583333333333 226.66650233333334 L 434.37499999999994 226.66645133333333 L 492.29166666666663 226.66639466666666 L 550.2083333333334 226.66641166666668 L 608.125 226.66639466666666 L 666.0416666666666 226.666372" fill="none"></path></g><g clip-path="none" transform="translate(45,50) scale(1 1)"  visibility="hidden" class="highcharts-markers"></g><g clip-path="url(#highcharts-9)" transform="translate(45,50) scale(1 1)"  visibility="hidden" class="highcharts-series"><path stroke-linecap="round" stroke-linejoin="round"  stroke-width="2" stroke="#3D96AE" d="M 28.958333333333332 226.66666666666669 L 86.875 226.66666666666669 L 144.79166666666666 226.66665533333332 L 202.70833333333334 226.66664966666667 L 260.625 226.66664400000002 L 318.54166666666663 226.66662133333335 L 376.4583333333333 226.66661 L 434.37499999999994 226.666593 L 492.29166666666663 226.666593 L 550.2083333333334 226.66658166666667 L 608.125 226.666576 L 666.0416666666666 226.66656466666666" fill="none"></path></g><g clip-path="none" transform="translate(45,50) scale(1 1)"  visibility="hidden" class="highcharts-markers"></g><g clip-path="url(#highcharts-9)" transform="translate(45,50) scale(1 1)"  visibility="hidden" class="highcharts-series"><path stroke-linecap="round" stroke-linejoin="round"  stroke-width="2" stroke="#DB843D" d="M 86.875 226.66664400000002 L 144.79166666666666 226.6665986666667 L 202.70833333333334 226.666474 L 260.625 226.66661 L 318.54166666666663 226.666661 L 376.4583333333333 226.666661 L 434.37499999999994 226.66665533333332 L 492.29166666666663 226.666542 L 550.2083333333334 226.66654766666667 L 608.125 226.66665533333332" fill="none"></path></g><g clip-path="none" transform="translate(45,50) scale(1 1)"  visibility="hidden" class="highcharts-markers"></g><g clip-path="url(#highcharts-9)" transform="translate(45,50) scale(1 1)"  visibility="hidden" class="highcharts-series"><path stroke-linecap="round" stroke-linejoin="round"  stroke-width="2" stroke="#92A8CD" d="M 144.79166666666666 226.66627566666668 L 202.70833333333334 226.66627 L 260.625 226.66626433333334 L 318.54166666666663 226.66629266666666 L 376.4583333333333 226.66631533333333 L 434.37499999999994 226.66627 L 492.29166666666663 226.66627 L 550.2083333333334 226.66628133333333 L 608.125 226.666253 L 666.0416666666666 226.666304" fill="none"></path></g><g clip-path="none" transform="translate(45,50) scale(1 1)"  visibility="hidden" class="highcharts-markers"></g><g clip-path="url(#highcharts-9)" transform="translate(45,50) scale(1 1)"  visibility="hidden" class="highcharts-series"><path stroke-linecap="round" stroke-linejoin="round"  stroke-width="2" stroke="#A47D7C" d="M 28.958333333333332 226.66661 L 86.875 226.666491 L 144.79166666666666 226.66648533333333 L 202.70833333333334 226.66646833333334 L 260.625 226.66644566666668 L 318.54166666666663 226.66641733333333 L 376.4583333333333 226.666474 L 434.37499999999994 226.66647966666667 L 492.29166666666663 226.66642866666666 L 550.2083333333334 226.66646833333334 L 608.125 226.66647966666667 L 666.0416666666666 226.666491" fill="none"></path></g><g clip-path="none" transform="translate(45,50) scale(1 1)"  visibility="hidden" class="highcharts-markers"></g><g clip-path="url(#highcharts-9)" transform="translate(45,50) scale(1 1)"  visibility="hidden" class="highcharts-series"><path stroke-linecap="round" stroke-linejoin="round"  stroke-width="2" stroke="#B5CA92" d="M 28.958333333333332 226.66583933333334 L 86.875 226.6661 L 144.79166666666666 226.66612266666667 L 202.70833333333334 226.66611133333333 L 260.625 226.6661 L 318.54166666666663 226.66609433333332 L 376.4583333333333 226.666049 L 434.37499999999994 226.66602066666667 L 492.29166666666663 226.66597533333334 L 550.2083333333334 226.66603766666668 L 608.125 226.666066" fill="none"></path></g><g clip-path="none" transform="translate(45,50) scale(1 1)"  visibility="hidden" class="highcharts-markers"></g><g clip-path="url(#highcharts-9)" transform="translate(45,50) scale(1 1)"  visibility="hidden" class="highcharts-series"><path stroke-linecap="round" stroke-linejoin="round"  stroke-width="2" stroke="#4572A7" d="M 28.958333333333332 -14539.669333333333 L 86.875 -19805.827333333335 L 144.79166666666666 -24914.707000000002 L 202.70833333333334 -7005.275000000001 L 260.625 -9001.862666666668 L 318.54166666666663 -12627.362000000001 L 376.4583333333333 -15292.503 L 434.37499999999994 -16629.394333333334 L 492.29166666666663 -18261.298000000003 L 550.2083333333334 -21171.465666666667 L 608.125 -24487.264666666666" fill="none"></path></g><g clip-path="none" transform="translate(45,50) scale(1 1)"  visibility="hidden" class="highcharts-markers"></g><g clip-path="url(#highcharts-9)" transform="translate(45,50) scale(1 1)"  visibility="hidden" class="highcharts-series"><path stroke-linecap="round" stroke-linejoin="round"  stroke-width="2" stroke="#AA4643" d="M 28.958333333333332 226.66620766666668 L 86.875 226.66660433333334 L 144.79166666666666 226.66660433333334 L 202.70833333333334 226.66663266666666 L 260.625 226.66664966666667 L 318.54166666666663 226.66665533333332 L 376.4583333333333 226.66665533333332 L 434.37499999999994 226.66665533333332 L 492.29166666666663 226.666661 L 550.2083333333334 226.666661 L 608.125 226.66665533333332" fill="none"></path></g><g clip-path="none" transform="translate(45,50) scale(1 1)"  visibility="hidden" class="highcharts-markers"></g><g clip-path="url(#highcharts-9)" transform="translate(45,50) scale(1 1)"  visibility="hidden" class="highcharts-series"></g><g clip-path="none" transform="translate(45,50) scale(1 1)"  visibility="hidden" class="highcharts-markers"></g><g clip-path="url(#highcharts-9)" transform="translate(45,50) scale(1 1)"  visibility="hidden" class="highcharts-series"><path stroke-linecap="round" stroke-linejoin="round"  stroke-width="2" stroke="#80699B" d="M 86.875 -1122.5667006666667 L 144.79166666666666 -1596.9147936666668 L 202.70833333333334 -2102.3333333333335 L 260.625 -2332.2406306666667 L 318.54166666666663 -3873.285683666667 L 376.4583333333333 -4199.551474333333 L 434.37499999999994 -4141.138414666667 L 492.29166666666663 -4398.6469290000005 L 550.2083333333334 -4931.795443666667 L 608.125 -5052.2318700000005" fill="none"></path></g><g clip-path="none" transform="translate(45,50) scale(1 1)"  visibility="hidden" class="highcharts-markers"></g><g clip-path="url(#highcharts-9)" transform="translate(45,50) scale(1 1)"  visibility="hidden" class="highcharts-series"><path stroke-linecap="round" stroke-linejoin="round"  stroke-width="2" stroke="#3D96AE" d="M 28.958333333333332 260.15666666666664 L 86.875 -683.9666666666667 L 144.79166666666666 -1925.580599 L 202.70833333333334 -3424.1541666666667 L 260.625 -4263.0660923333335 L 318.54166666666663 -3903.545105666667 L 376.4583333333333 -4542.234550333334 L 434.37499999999994 -2855.2787863333333 L 492.29166666666663 -4840.998528666667 L 550.2083333333334 -6603.868098666667 L 608.125 -6541.590627333334" fill="none"></path></g><g clip-path="none" transform="translate(45,50) scale(1 1)"  visibility="hidden" class="highcharts-markers"></g><g clip-path="url(#highcharts-9)" transform="translate(45,50) scale(1 1)"  visibility="hidden" class="highcharts-series"><path stroke-linecap="round" stroke-linejoin="round"  stroke-width="2" stroke="#DB843D" d="M 28.958333333333332 -3530.9 L 86.875 -4608.586666666667 L 144.79166666666666 -6528.906666666667 L 202.70833333333334 -8763.103333333334 L 260.625 -9618.033333333333 L 318.54166666666663 -9074.996666666668 L 376.4583333333333 -9886.633333333333 L 434.37499999999994 -9539.663333333334 L 492.29166666666663 -8714.313333333334 L 550.2083333333334 -9152.743333333334 L 608.125 -9364.506666666666" fill="none"></path></g><g clip-path="none" transform="translate(45,50) scale(1 1)"  visibility="hidden" class="highcharts-markers"></g></g><text y="30" style="color:#444444;font-size:9px;font-family:arial;font-weight:normal;font-style:italic;fill:#444444;width:686px;"  class="highcharts-title" text-anchor="start" x="0"></text><g transform="translate(24,259)"  class="highcharts-legend"><g clip-path="url(#highcharts-8)" ><g transform="translate(0,0)"><g transform="translate(8,3)"  class="highcharts-legend-item"><path stroke-width="2" stroke="#4572A7" d="M 0 10 L 16 10" fill="none"></path><path stroke-width="2" stroke="#4572A7" d="M 8 8 C 10.664 8 10.664 12 8 12 C 5.336 12 5.336 8 8 8 Z" fill="#4572A7"></path><text y="14"  text-anchor="start" style="color:#3e576f;font-size:11px;font-weight:normal;cursor:pointer;font-family:arial;font-style:normal;fill:#3e576f;" x="21"><tspan>Population, total</tspan></text></g><g transform="translate(127,3)"  class="highcharts-legend-item"><path stroke-width="2" stroke="#CCC" d="M 0 10 L 16 10" fill="none"></path><path stroke-width="2" stroke="#AA4643" d="M 8 8 C 10.664 8 10.664 12 8 12 C 5.336 12 5.336 8 8 8 Z" fill="#AA4643"></path><text  text-anchor="start" style="color:#ccc;font-size:11px;font-weight:normal;cursor:pointer;font-family:arial;font-style:normal;fill:#ccc;" y="14" x="21"><tspan>Population growth (annual %)</tspan></text></g><g transform="translate(314,3)"  class="highcharts-legend-item"><path stroke-width="2" stroke="#CCC" d="M 0 10 L 16 10" fill="none"></path><path stroke-width="2" stroke="#89A54E" d="M 8 8 C 10.664 8 10.664 12 8 12 C 5.336 12 5.336 8 8 8 Z" fill="#89A54E"></path><text  text-anchor="start" style="color:#ccc;font-size:11px;font-weight:normal;cursor:pointer;font-family:arial;font-style:normal;fill:#ccc;" y="14" x="21"><tspan>Surface area (sq. km)</tspan></text></g><g transform="translate(8,16)"  class="highcharts-legend-item"><path stroke-width="2" stroke="#CCC" d="M 0 10 L 16 10" fill="none"></path><path stroke-width="2" stroke="#80699B" d="M 8 8 C 10.664 8 10.664 12 8 12 C 5.336 12 5.336 8 8 8 Z" fill="#80699B"></path><text  text-anchor="start" style="color:#ccc;font-size:11px;font-weight:normal;cursor:pointer;font-family:arial;font-style:normal;fill:#ccc;" y="14" x="21"><tspan>Population density (people per sq. km of land area)</tspan></text></g><g transform="translate(296,16)"  class="highcharts-legend-item"><path stroke-width="2" stroke="#CCC" d="M 0 10 L 16 10" fill="none"></path><path stroke-width="2" stroke="#3D96AE" d="M 8 8 C 10.664 8 10.664 12 8 12 C 5.336 12 5.336 8 8 8 Z" fill="#3D96AE"></path><text  text-anchor="start" style="color:#ccc;font-size:11px;font-weight:normal;cursor:pointer;font-family:arial;font-style:normal;fill:#ccc;" y="14" x="21"><tspan>Poverty headcount ratio at national poverty lines (% of population)</tspan></text></g><g transform="translate(8,29)"  class="highcharts-legend-item"><path stroke-width="2" stroke="#CCC" d="M 0 10 L 16 10" fill="none"></path><path stroke-width="2" stroke="#DB843D" d="M 8 8 C 10.664 8 10.664 12 8 12 C 5.336 12 5.336 8 8 8 Z" fill="#DB843D"></path><text  text-anchor="start" style="color:#ccc;font-size:11px;font-weight:normal;cursor:pointer;font-family:arial;font-style:normal;fill:#ccc;" y="14" x="21"><tspan>Poverty headcount ratio at $1.25 a day (PPP) (% of population)</tspan></text></g><g transform="translate(354,29)"  class="highcharts-legend-item"><path stroke-width="2" stroke="#CCC" d="M 0 10 L 16 10" fill="none"></path><path stroke-width="2" stroke="#92A8CD" d="M 8 8 C 10.664 8 10.664 12 8 12 C 5.336 12 5.336 8 8 8 Z" fill="#92A8CD"></path><text  text-anchor="start" style="color:#ccc;font-size:11px;font-weight:normal;cursor:pointer;font-family:arial;font-style:normal;fill:#ccc;" y="14" x="21"><tspan>GNI, Atlas method (current US$)</tspan></text></g><g transform="translate(8,42)"  class="highcharts-legend-item"><path stroke-width="2" stroke="#CCC" d="M 0 10 L 16 10" fill="none"></path><path stroke-width="2" stroke="#A47D7C" d="M 8 8 C 10.664 8 10.664 12 8 12 C 5.336 12 5.336 8 8 8 Z" fill="#A47D7C"></path><text  text-anchor="start" style="color:#ccc;font-size:11px;font-weight:normal;cursor:pointer;font-family:arial;font-style:normal;fill:#ccc;" y="14" x="21"><tspan>GNI per capita, Atlas method (current US$)</tspan></text></g><g transform="translate(258,42)"  class="highcharts-legend-item"><path stroke-width="2" stroke="#CCC" d="M 0 10 L 16 10" fill="none"></path><path stroke-width="2" stroke="#B5CA92" d="M 8 8 C 10.664 8 10.664 12 8 12 C 5.336 12 5.336 8 8 8 Z" fill="#B5CA92"></path><text  text-anchor="start" style="color:#ccc;font-size:11px;font-weight:normal;cursor:pointer;font-family:arial;font-style:normal;fill:#ccc;" y="14" x="21"><tspan>GNI, PPP (current international $)</tspan></text></g><g transform="translate(459,42)"  class="highcharts-legend-item"><path stroke-width="2" stroke="#CCC" d="M 0 10 L 16 10" fill="none"></path><path stroke-width="2" stroke="#4572A7" d="M 8 8 C 10.664 8 10.664 12 8 12 C 5.336 12 5.336 8 8 8 Z" fill="#4572A7"></path><text  text-anchor="start" style="color:#ccc;font-size:11px;font-weight:normal;cursor:pointer;font-family:arial;font-style:normal;fill:#ccc;" y="14" x="21"><tspan>GNI per capita, PPP (current international $)</tspan></text></g><g transform="translate(8,55)"  class="highcharts-legend-item"><path stroke-width="2" stroke="#CCC" d="M 0 10 L 16 10" fill="none"></path><path stroke-width="2" stroke="#AA4643" d="M 8 8 C 10.664 8 10.664 12 8 12 C 5.336 12 5.336 8 8 8 Z" fill="#AA4643"></path><text  text-anchor="start" style="color:#ccc;font-size:11px;font-weight:normal;cursor:pointer;font-family:arial;font-style:normal;fill:#ccc;" y="14" x="21"><tspan>Income share held by lowest 20%</tspan></text></g><g transform="translate(216,55)"  class="highcharts-legend-item"><path stroke-width="2" stroke="#CCC" d="M 0 10 L 16 10" fill="none"></path><path stroke-width="2" stroke="#89A54E" d="M 8 8 C 10.664 8 10.664 12 8 12 C 5.336 12 5.336 8 8 8 Z" fill="#89A54E"></path><text  text-anchor="start" style="color:#ccc;font-size:11px;font-weight:normal;cursor:pointer;font-family:arial;font-style:normal;fill:#ccc;" y="14" x="21"><tspan>Life expectancy at birth, total (years)</tspan></text></g><g transform="translate(439,55)"  class="highcharts-legend-item"><path stroke-width="2" stroke="#CCC" d="M 0 10 L 16 10" fill="none"></path><path stroke-width="2" stroke="#80699B" d="M 8 8 C 10.664 8 10.664 12 8 12 C 5.336 12 5.336 8 8 8 Z" fill="#80699B"></path><text  text-anchor="start" style="color:#ccc;font-size:11px;font-weight:normal;cursor:pointer;font-family:arial;font-style:normal;fill:#ccc;" y="14" x="21"><tspan>Fertility rate, total (births per woman)</tspan></text></g><g transform="translate(8,68)"  class="highcharts-legend-item"><path stroke-width="2" stroke="#CCC" d="M 0 10 L 16 10" fill="none"></path><path stroke-width="2" stroke="#3D96AE" d="M 8 8 C 10.664 8 10.664 12 8 12 C 5.336 12 5.336 8 8 8 Z" fill="#3D96AE"></path><text  text-anchor="start" style="color:#ccc;font-size:11px;font-weight:normal;cursor:pointer;font-family:arial;font-style:normal;fill:#ccc;" y="14" x="21"><tspan>Adolescent fertility rate (births per 1,000 women ages 15-19)</tspan></text></g><g transform="translate(348,68)"  class="highcharts-legend-item"><path stroke-width="2" stroke="#CCC" d="M 0 10 L 16 10" fill="none"></path><path stroke-width="2" stroke="#DB843D" d="M 8 8 C 10.664 8 10.664 12 8 12 C 5.336 12 5.336 8 8 8 Z" fill="#DB843D"></path><text  text-anchor="start" style="color:#ccc;font-size:11px;font-weight:normal;cursor:pointer;font-family:arial;font-style:normal;fill:#ccc;" y="14" x="21"><tspan>Contraceptive prevalence (% of women ages 15-49)</tspan></text></g><g transform="translate(8,81)"  class="highcharts-legend-item"><path stroke-width="2" stroke="#CCC" d="M 0 10 L 16 10" fill="none"></path><path stroke-width="2" stroke="#92A8CD" d="M 8 8 C 10.664 8 10.664 12 8 12 C 5.336 12 5.336 8 8 8 Z" fill="#92A8CD"></path><text  text-anchor="start" style="color:#ccc;font-size:11px;font-weight:normal;cursor:pointer;font-family:arial;font-style:normal;fill:#ccc;" y="14" x="21"><tspan>Births attended by skilled health staff (% of total)</tspan></text></g><g transform="translate(287,81)"  class="highcharts-legend-item"><path stroke-width="2" stroke="#CCC" d="M 0 10 L 16 10" fill="none"></path><path stroke-width="2" stroke="#A47D7C" d="M 8 8 C 10.664 8 10.664 12 8 12 C 5.336 12 5.336 8 8 8 Z" fill="#A47D7C"></path><text  text-anchor="start" style="color:#ccc;font-size:11px;font-weight:normal;cursor:pointer;font-family:arial;font-style:normal;fill:#ccc;" y="14" x="21"><tspan>Mortality rate, under-5 (per 1,000 live births)</tspan></text></g><g transform="translate(8,94)"  class="highcharts-legend-item"><path stroke-width="2" stroke="#CCC" d="M 0 10 L 16 10" fill="none"></path><path stroke-width="2" stroke="#B5CA92" d="M 8 8 C 10.664 8 10.664 12 8 12 C 5.336 12 5.336 8 8 8 Z" fill="#B5CA92"></path><text  text-anchor="start" style="color:#ccc;font-size:11px;font-weight:normal;cursor:pointer;font-family:arial;font-style:normal;fill:#ccc;" y="14" x="21"><tspan>Malnutrition prevalence, weight for age (% of children under 5)</tspan></text></g><g transform="translate(355,94)"  class="highcharts-legend-item"><path stroke-width="2" stroke="#CCC" d="M 0 10 L 16 10" fill="none"></path><path stroke-width="2" stroke="#4572A7" d="M 8 8 C 10.664 8 10.664 12 8 12 C 5.336 12 5.336 8 8 8 Z" fill="#4572A7"></path><text  text-anchor="start" style="color:#ccc;font-size:11px;font-weight:normal;cursor:pointer;font-family:arial;font-style:normal;fill:#ccc;" y="14" x="21"><tspan>Immunization, measles (% of children ages 12-23 months)</tspan></text></g><g transform="translate(8,107)"  class="highcharts-legend-item"><path stroke-width="2" stroke="#CCC" d="M 0 10 L 16 10" fill="none"></path><path stroke-width="2" stroke="#AA4643" d="M 8 8 C 10.664 8 10.664 12 8 12 C 5.336 12 5.336 8 8 8 Z" fill="#AA4643"></path><text  text-anchor="start" style="color:#ccc;font-size:11px;font-weight:normal;cursor:pointer;font-family:arial;font-style:normal;fill:#ccc;" y="14" x="21"><tspan>Primary completion rate, total (% of relevant age group)</tspan></text></g><g transform="translate(318,107)"  class="highcharts-legend-item"><path stroke-width="2" stroke="#CCC" d="M 0 10 L 16 10" fill="none"></path><path stroke-width="2" stroke="#89A54E" d="M 8 8 C 10.664 8 10.664 12 8 12 C 5.336 12 5.336 8 8 8 Z" fill="#89A54E"></path><text  text-anchor="start" style="color:#ccc;font-size:11px;font-weight:normal;cursor:pointer;font-family:arial;font-style:normal;fill:#ccc;" y="14" x="21"><tspan>School enrollment, primary (% gross)</tspan></text></g><g transform="translate(8,120)"  class="highcharts-legend-item"><path stroke-width="2" stroke="#CCC" d="M 0 10 L 16 10" fill="none"></path><path stroke-width="2" stroke="#80699B" d="M 8 8 C 10.664 8 10.664 12 8 12 C 5.336 12 5.336 8 8 8 Z" fill="#80699B"></path><text  text-anchor="start" style="color:#ccc;font-size:11px;font-weight:normal;cursor:pointer;font-family:arial;font-style:normal;fill:#ccc;" y="14" x="21"><tspan>School enrollment, secondary (% gross)</tspan></text></g><g transform="translate(247,120)"  class="highcharts-legend-item"><path stroke-width="2" stroke="#CCC" d="M 0 10 L 16 10" fill="none"></path><path stroke-width="2" stroke="#3D96AE" d="M 8 8 C 10.664 8 10.664 12 8 12 C 5.336 12 5.336 8 8 8 Z" fill="#3D96AE"></path><text  text-anchor="start" style="color:#ccc;font-size:11px;font-weight:normal;cursor:pointer;font-family:arial;font-style:normal;fill:#ccc;" y="14" x="21"><tspan>Ratio of girls to boys in primary and secondary education (%)</tspan></text></g><g transform="translate(8,133)"  class="highcharts-legend-item"><path stroke-width="2" stroke="#CCC" d="M 0 10 L 16 10" fill="none"></path><path stroke-width="2" stroke="#DB843D" d="M 8 8 C 10.664 8 10.664 12 8 12 C 5.336 12 5.336 8 8 8 Z" fill="#DB843D"></path><text  text-anchor="start" style="color:#ccc;font-size:11px;font-weight:normal;cursor:pointer;font-family:arial;font-style:normal;fill:#ccc;" y="14" x="21"><tspan>Prevalence of HIV, total (% of population ages 15-49)</tspan></text></g><g transform="translate(308,133)"  class="highcharts-legend-item"><path stroke-width="2" stroke="#CCC" d="M 0 10 L 16 10" fill="none"></path><path stroke-width="2" stroke="#92A8CD" d="M 8 8 C 10.664 8 10.664 12 8 12 C 5.336 12 5.336 8 8 8 Z" fill="#92A8CD"></path><text  text-anchor="start" style="color:#ccc;font-size:11px;font-weight:normal;cursor:pointer;font-family:arial;font-style:normal;fill:#ccc;" y="14" x="21"><tspan>Forest area (sq. km)</tspan></text></g><g transform="translate(8,146)"  class="highcharts-legend-item"><path stroke-width="2" stroke="#CCC" d="M 0 10 L 16 10" fill="none"></path><path stroke-width="2" stroke="#A47D7C" d="M 8 8 C 10.664 8 10.664 12 8 12 C 5.336 12 5.336 8 8 8 Z" fill="#A47D7C"></path><text  text-anchor="start" style="color:#ccc;font-size:11px;font-weight:normal;cursor:pointer;font-family:arial;font-style:normal;fill:#ccc;" y="14" x="21"><tspan>Terrestrial and marine protected areas (% of total territorial area)</tspan></text></g><g transform="translate(363,146)"  class="highcharts-legend-item"><path stroke-width="2" stroke="#CCC" d="M 0 10 L 16 10" fill="none"></path><path stroke-width="2" stroke="#B5CA92" d="M 8 8 C 10.664 8 10.664 12 8 12 C 5.336 12 5.336 8 8 8 Z" fill="#B5CA92"></path><text  text-anchor="start" style="color:#ccc;font-size:11px;font-weight:normal;cursor:pointer;font-family:arial;font-style:normal;fill:#ccc;" y="14" x="21"><tspan>Annual freshwater withdrawals, total (% of internal resources)</tspan></text></g><g transform="translate(8,159)"  class="highcharts-legend-item"><path stroke-width="2" stroke="#CCC" d="M 0 10 L 16 10" fill="none"></path><path stroke-width="2" stroke="#4572A7" d="M 8 8 C 10.664 8 10.664 12 8 12 C 5.336 12 5.336 8 8 8 Z" fill="#4572A7"></path><text  text-anchor="start" style="color:#ccc;font-size:11px;font-weight:normal;cursor:pointer;font-family:arial;font-style:normal;fill:#ccc;" y="14" x="21"><tspan>Improved water source (% of population with access)</tspan></text></g><g transform="translate(314,159)"  class="highcharts-legend-item"><path stroke-width="2" stroke="#CCC" d="M 0 10 L 16 10" fill="none"></path><path stroke-width="2" stroke="#AA4643" d="M 8 8 C 10.664 8 10.664 12 8 12 C 5.336 12 5.336 8 8 8 Z" fill="#AA4643"></path><text  text-anchor="start" style="color:#ccc;font-size:11px;font-weight:normal;cursor:pointer;font-family:arial;font-style:normal;fill:#ccc;" y="14" x="21"><tspan>Improved sanitation facilities (% of population with access)</tspan></text></g><g transform="translate(8,172)"  class="highcharts-legend-item"><path stroke-width="2" stroke="#CCC" d="M 0 10 L 16 10" fill="none"></path><path stroke-width="2" stroke="#89A54E" d="M 8 8 C 10.664 8 10.664 12 8 12 C 5.336 12 5.336 8 8 8 Z" fill="#89A54E"></path><text  text-anchor="start" style="color:#ccc;font-size:11px;font-weight:normal;cursor:pointer;font-family:arial;font-style:normal;fill:#ccc;" y="14" x="21"><tspan>Urban population growth (annual %)</tspan></text></g><g transform="translate(227,172)"  class="highcharts-legend-item"><path stroke-width="2" stroke="#CCC" d="M 0 10 L 16 10" fill="none"></path><path stroke-width="2" stroke="#80699B" d="M 8 8 C 10.664 8 10.664 12 8 12 C 5.336 12 5.336 8 8 8 Z" fill="#80699B"></path><text  text-anchor="start" style="color:#ccc;font-size:11px;font-weight:normal;cursor:pointer;font-family:arial;font-style:normal;fill:#ccc;" y="14" x="21"><tspan>Energy use (kg of oil equivalent per capita)</tspan></text></g><g transform="translate(477,172)"  class="highcharts-legend-item"><path stroke-width="2" stroke="#CCC" d="M 0 10 L 16 10" fill="none"></path><path stroke-width="2" stroke="#3D96AE" d="M 8 8 C 10.664 8 10.664 12 8 12 C 5.336 12 5.336 8 8 8 Z" fill="#3D96AE"></path><text  text-anchor="start" style="color:#ccc;font-size:11px;font-weight:normal;cursor:pointer;font-family:arial;font-style:normal;fill:#ccc;" y="14" x="21"><tspan>CO2 emissions (metric tons per capita)</tspan></text></g><g transform="translate(8,185)"  class="highcharts-legend-item"><path stroke-width="2" stroke="#CCC" d="M 0 10 L 16 10" fill="none"></path><path stroke-width="2" stroke="#DB843D" d="M 8 8 C 10.664 8 10.664 12 8 12 C 5.336 12 5.336 8 8 8 Z" fill="#DB843D"></path><text  text-anchor="start" style="color:#ccc;font-size:11px;font-weight:normal;cursor:pointer;font-family:arial;font-style:normal;fill:#ccc;" y="14" x="21"><tspan>Electric power consumption (kWh per capita)</tspan></text></g><g transform="translate(269,185)"  class="highcharts-legend-item"><path stroke-width="2" stroke="#CCC" d="M 0 10 L 16 10" fill="none"></path><path stroke-width="2" stroke="#92A8CD" d="M 8 8 C 10.664 8 10.664 12 8 12 C 5.336 12 5.336 8 8 8 Z" fill="#92A8CD"></path><text  text-anchor="start" style="color:#ccc;font-size:11px;font-weight:normal;cursor:pointer;font-family:arial;font-style:normal;fill:#ccc;" y="14" x="21"><tspan>GDP (current US$)</tspan></text></g><g transform="translate(403,185)"  class="highcharts-legend-item"><path stroke-width="2" stroke="#CCC" d="M 0 10 L 16 10" fill="none"></path><path stroke-width="2" stroke="#A47D7C" d="M 8 8 C 10.664 8 10.664 12 8 12 C 5.336 12 5.336 8 8 8 Z" fill="#A47D7C"></path><text  text-anchor="start" style="color:#ccc;font-size:11px;font-weight:normal;cursor:pointer;font-family:arial;font-style:normal;fill:#ccc;" y="14" x="21"><tspan>GDP growth (annual %)</tspan></text></g><g transform="translate(8,198)"  class="highcharts-legend-item"><path stroke-width="2" stroke="#CCC" d="M 0 10 L 16 10" fill="none"></path><path stroke-width="2" stroke="#B5CA92" d="M 8 8 C 10.664 8 10.664 12 8 12 C 5.336 12 5.336 8 8 8 Z" fill="#B5CA92"></path><text  text-anchor="start" style="color:#ccc;font-size:11px;font-weight:normal;cursor:pointer;font-family:arial;font-style:normal;fill:#ccc;" y="14" x="21"><tspan>Inflation, GDP deflator (annual %)</tspan></text></g><g transform="translate(212,198)"  class="highcharts-legend-item"><path stroke-width="2" stroke="#CCC" d="M 0 10 L 16 10" fill="none"></path><path stroke-width="2" stroke="#4572A7" d="M 8 8 C 10.664 8 10.664 12 8 12 C 5.336 12 5.336 8 8 8 Z" fill="#4572A7"></path><text  text-anchor="start" style="color:#ccc;font-size:11px;font-weight:normal;cursor:pointer;font-family:arial;font-style:normal;fill:#ccc;" y="14" x="21"><tspan>Agriculture, value added (% of GDP)</tspan></text></g><g transform="translate(432,198)"  class="highcharts-legend-item"><path stroke-width="2" stroke="#CCC" d="M 0 10 L 16 10" fill="none"></path><path stroke-width="2" stroke="#AA4643" d="M 8 8 C 10.664 8 10.664 12 8 12 C 5.336 12 5.336 8 8 8 Z" fill="#AA4643"></path><text  text-anchor="start" style="color:#ccc;font-size:11px;font-weight:normal;cursor:pointer;font-family:arial;font-style:normal;fill:#ccc;" y="14" x="21"><tspan>Industry, value added (% of GDP)</tspan></text></g><g transform="translate(8,211)"  class="highcharts-legend-item"><path stroke-width="2" stroke="#CCC" d="M 0 10 L 16 10" fill="none"></path><path stroke-width="2" stroke="#89A54E" d="M 8 8 C 10.664 8 10.664 12 8 12 C 5.336 12 5.336 8 8 8 Z" fill="#89A54E"></path><text  text-anchor="start" style="color:#ccc;font-size:11px;font-weight:normal;cursor:pointer;font-family:arial;font-style:normal;fill:#ccc;" y="14" x="21"><tspan>Services, etc., value added (% of GDP)</tspan></text></g><g transform="translate(242,211)"  class="highcharts-legend-item"><path stroke-width="2" stroke="#CCC" d="M 0 10 L 16 10" fill="none"></path><path stroke-width="2" stroke="#80699B" d="M 8 8 C 10.664 8 10.664 12 8 12 C 5.336 12 5.336 8 8 8 Z" fill="#80699B"></path><text  text-anchor="start" style="color:#ccc;font-size:11px;font-weight:normal;cursor:pointer;font-family:arial;font-style:normal;fill:#ccc;" y="14" x="21"><tspan>Exports of goods and services (% of GDP)</tspan></text></g><g transform="translate(8,224)"  class="highcharts-legend-item"><path stroke-width="2" stroke="#CCC" d="M 0 10 L 16 10" fill="none"></path><path stroke-width="2" stroke="#3D96AE" d="M 8 8 C 10.664 8 10.664 12 8 12 C 5.336 12 5.336 8 8 8 Z" fill="#3D96AE"></path><text  text-anchor="start" style="color:#ccc;font-size:11px;font-weight:normal;cursor:pointer;font-family:arial;font-style:normal;fill:#ccc;" y="14" x="21"><tspan>Imports of goods and services (% of GDP)</tspan></text></g><g transform="translate(257,224)"  class="highcharts-legend-item"><path stroke-width="2" stroke="#CCC" d="M 0 10 L 16 10" fill="none"></path><path stroke-width="2" stroke="#DB843D" d="M 8 8 C 10.664 8 10.664 12 8 12 C 5.336 12 5.336 8 8 8 Z" fill="#DB843D"></path><text  text-anchor="start" style="color:#ccc;font-size:11px;font-weight:normal;cursor:pointer;font-family:arial;font-style:normal;fill:#ccc;" y="14" x="21"><tspan>Gross capital formation (% of GDP)</tspan></text></g><g transform="translate(471,224)"  class="highcharts-legend-item"><path stroke-width="2" stroke="#CCC" d="M 0 10 L 16 10" fill="none"></path><path stroke-width="2" stroke="#92A8CD" d="M 8 8 C 10.664 8 10.664 12 8 12 C 5.336 12 5.336 8 8 8 Z" fill="#92A8CD"></path><text  text-anchor="start" style="color:#ccc;font-size:11px;font-weight:normal;cursor:pointer;font-family:arial;font-style:normal;fill:#ccc;" y="14" x="21"><tspan>Revenue, excluding grants (% of GDP)</tspan></text></g><g transform="translate(8,237)"  class="highcharts-legend-item"><path stroke-width="2" stroke="#CCC" d="M 0 10 L 16 10" fill="none"></path><path stroke-width="2" stroke="#A47D7C" d="M 8 8 C 10.664 8 10.664 12 8 12 C 5.336 12 5.336 8 8 8 Z" fill="#A47D7C"></path><text  text-anchor="start" style="color:#ccc;font-size:11px;font-weight:normal;cursor:pointer;font-family:arial;font-style:normal;fill:#ccc;" y="14" x="21"><tspan>Cash surplus/deficit (% of GDP)</tspan></text></g><g transform="translate(206,237)"  class="highcharts-legend-item"><path stroke-width="2" stroke="#CCC" d="M 0 10 L 16 10" fill="none"></path><path stroke-width="2" stroke="#B5CA92" d="M 8 8 C 10.664 8 10.664 12 8 12 C 5.336 12 5.336 8 8 8 Z" fill="#B5CA92"></path><text  text-anchor="start" style="color:#ccc;font-size:11px;font-weight:normal;cursor:pointer;font-family:arial;font-style:normal;fill:#ccc;" y="14" x="21"><tspan>Time required to start a business (days)</tspan></text></g><g transform="translate(8,250)"  class="highcharts-legend-item"><path stroke-width="2" stroke="#CCC" d="M 0 10 L 16 10" fill="none"></path><path stroke-width="2" stroke="#4572A7" d="M 8 8 C 10.664 8 10.664 12 8 12 C 5.336 12 5.336 8 8 8 Z" fill="#4572A7"></path><text  text-anchor="start" style="color:#ccc;font-size:11px;font-weight:normal;cursor:pointer;font-family:arial;font-style:normal;fill:#ccc;" y="14" x="21"><tspan>Domestic credit provided by financial sector (% of GDP)</tspan></text></g><g transform="translate(321,250)"  class="highcharts-legend-item"><path stroke-width="2" stroke="#CCC" d="M 0 10 L 16 10" fill="none"></path><path stroke-width="2" stroke="#AA4643" d="M 8 8 C 10.664 8 10.664 12 8 12 C 5.336 12 5.336 8 8 8 Z" fill="#AA4643"></path><text  text-anchor="start" style="color:#ccc;font-size:11px;font-weight:normal;cursor:pointer;font-family:arial;font-style:normal;fill:#ccc;" y="14" x="21"><tspan>Tax revenue (% of GDP)</tspan></text></g><g transform="translate(483,250)"  class="highcharts-legend-item"><path stroke-width="2" stroke="#CCC" d="M 0 10 L 16 10" fill="none"></path><path stroke-width="2" stroke="#89A54E" d="M 8 8 C 10.664 8 10.664 12 8 12 C 5.336 12 5.336 8 8 8 Z" fill="#89A54E"></path><text  text-anchor="start" style="color:#ccc;font-size:11px;font-weight:normal;cursor:pointer;font-family:arial;font-style:normal;fill:#ccc;" y="14" x="21"><tspan>Military expenditure (% of GDP)</tspan></text></g><g transform="translate(8,263)"  class="highcharts-legend-item"><path stroke-width="2" stroke="#CCC" d="M 0 10 L 16 10" fill="none"></path><path stroke-width="2" stroke="#80699B" d="M 8 8 C 10.664 8 10.664 12 8 12 C 5.336 12 5.336 8 8 8 Z" fill="#80699B"></path><text  text-anchor="start" style="color:#ccc;font-size:11px;font-weight:normal;cursor:pointer;font-family:arial;font-style:normal;fill:#ccc;" y="14" x="21"><tspan>Mobile cellular subscriptions (per 100 people)</tspan></text></g><g transform="translate(270,263)"  class="highcharts-legend-item"><path stroke-width="2" stroke="#CCC" d="M 0 10 L 16 10" fill="none"></path><path stroke-width="2" stroke="#3D96AE" d="M 8 8 C 10.664 8 10.664 12 8 12 C 5.336 12 5.336 8 8 8 Z" fill="#3D96AE"></path><text  text-anchor="start" style="color:#ccc;font-size:11px;font-weight:normal;cursor:pointer;font-family:arial;font-style:normal;fill:#ccc;" y="14" x="21"><tspan>Internet users (per 100 people)</tspan></text></g><g transform="translate(8,276)"  class="highcharts-legend-item"><path stroke-width="2" stroke="#CCC" d="M 0 10 L 16 10" fill="none"></path><path stroke-width="2" stroke="#DB843D" d="M 8 8 C 10.664 8 10.664 12 8 12 C 5.336 12 5.336 8 8 8 Z" fill="#DB843D"></path><text  text-anchor="start" style="color:#ccc;font-size:11px;font-weight:normal;cursor:pointer;font-family:arial;font-style:normal;fill:#ccc;" y="14" x="21"><tspan>High-technology exports (% of manufactured exports)</tspan></text></g><g transform="translate(314,276)"  class="highcharts-legend-item"><path stroke-width="2" stroke="#CCC" d="M 0 10 L 16 10" fill="none"></path><path stroke-width="2" stroke="#92A8CD" d="M 8 8 C 10.664 8 10.664 12 8 12 C 5.336 12 5.336 8 8 8 Z" fill="#92A8CD"></path><text  text-anchor="start" style="color:#ccc;font-size:11px;font-weight:normal;cursor:pointer;font-family:arial;font-style:normal;fill:#ccc;" y="14" x="21"><tspan>Overall level of statistical capacity (scale 0 - 100)</tspan></text></g><g transform="translate(8,289)"  class="highcharts-legend-item"><path stroke-width="2" stroke="#CCC" d="M 0 10 L 16 10" fill="none"></path><path stroke-width="2" stroke="#A47D7C" d="M 8 8 C 10.664 8 10.664 12 8 12 C 5.336 12 5.336 8 8 8 Z" fill="#A47D7C"></path><text  text-anchor="start" style="color:#ccc;font-size:11px;font-weight:normal;cursor:pointer;font-family:arial;font-style:normal;fill:#ccc;" y="14" x="21"><tspan>Merchandise trade (% of GDP)</tspan></text></g><g transform="translate(200,289)"  class="highcharts-legend-item"><path stroke-width="2" stroke="#CCC" d="M 0 10 L 16 10" fill="none"></path><path stroke-width="2" stroke="#B5CA92" d="M 8 8 C 10.664 8 10.664 12 8 12 C 5.336 12 5.336 8 8 8 Z" fill="#B5CA92"></path><text  text-anchor="start" style="color:#ccc;font-size:11px;font-weight:normal;cursor:pointer;font-family:arial;font-style:normal;fill:#ccc;" y="14" x="21"><tspan>Net barter terms of trade index (2000 = 100)</tspan></text></g><g transform="translate(457,289)"  class="highcharts-legend-item"><path stroke-width="2" stroke="#CCC" d="M 0 10 L 16 10" fill="none"></path><path stroke-width="2" stroke="#4572A7" d="M 8 8 C 10.664 8 10.664 12 8 12 C 5.336 12 5.336 8 8 8 Z" fill="#4572A7"></path><text  text-anchor="start" style="color:#ccc;font-size:11px;font-weight:normal;cursor:pointer;font-family:arial;font-style:normal;fill:#ccc;" y="14" x="21"><tspan>External debt stocks, total (DOD, current US$)</tspan></text></g><g transform="translate(8,302)"  class="highcharts-legend-item"><path stroke-width="2" stroke="#CCC" d="M 0 10 L 16 10" fill="none"></path><path stroke-width="2" stroke="#AA4643" d="M 8 8 C 10.664 8 10.664 12 8 12 C 5.336 12 5.336 8 8 8 Z" fill="#AA4643"></path><text  text-anchor="start" style="color:#ccc;font-size:11px;font-weight:normal;cursor:pointer;font-family:arial;font-style:normal;fill:#ccc;" y="14" x="21"><tspan>Total debt service (% of exports of goods, services and primary income)</tspan></text></g><g transform="translate(402,302)"  class="highcharts-legend-item"><path stroke-width="2" stroke="#CCC" d="M 0 10 L 16 10" fill="none"></path><path stroke-width="2" stroke="#89A54E" d="M 8 8 C 10.664 8 10.664 12 8 12 C 5.336 12 5.336 8 8 8 Z" fill="#89A54E"></path><text  text-anchor="start" style="color:#ccc;font-size:11px;font-weight:normal;cursor:pointer;font-family:arial;font-style:normal;fill:#ccc;" y="14" x="21"><tspan>Net migration</tspan></text></g><g transform="translate(8,315)"  class="highcharts-legend-item"><path stroke-width="2" stroke="#CCC" d="M 0 10 L 16 10" fill="none"></path><path stroke-width="2" stroke="#80699B" d="M 8 8 C 10.664 8 10.664 12 8 12 C 5.336 12 5.336 8 8 8 Z" fill="#80699B"></path><text  text-anchor="start" style="color:#ccc;font-size:11px;font-weight:normal;cursor:pointer;font-family:arial;font-style:normal;fill:#ccc;" y="14" x="21"><tspan>Personal remittances, received (current US$)</tspan></text></g><g transform="translate(270,315)"  class="highcharts-legend-item"><path stroke-width="2" stroke="#CCC" d="M 0 10 L 16 10" fill="none"></path><path stroke-width="2" stroke="#3D96AE" d="M 8 8 C 10.664 8 10.664 12 8 12 C 5.336 12 5.336 8 8 8 Z" fill="#3D96AE"></path><text  text-anchor="start" style="color:#ccc;font-size:11px;font-weight:normal;cursor:pointer;font-family:arial;font-style:normal;fill:#ccc;" y="14" x="21"><tspan>Foreign direct investment, net inflows (BoP, current US$)</tspan></text></g><g transform="translate(8,328)"  class="highcharts-legend-item"><path stroke-width="2" stroke="#CCC" d="M 0 10 L 16 10" fill="none"></path><path stroke-width="2" stroke="#DB843D" d="M 8 8 C 10.664 8 10.664 12 8 12 C 5.336 12 5.336 8 8 8 Z" fill="#DB843D"></path><text  text-anchor="start" style="color:#ccc;font-size:11px;font-weight:normal;cursor:pointer;font-family:arial;font-style:normal;fill:#ccc;" y="14" x="21"><tspan>Net official development assistance and official aid received (current US$)</tspan></text></g></g></g><g transform="translate(8,228)" visibility="visible" ><path style="cursor:default;" d="M 6 0 L 12 12 0 12 Z" fill="#CCC"></path><text style="" y="10" x="15">1/2</text><path style="cursor:pointer;" d="M 39.46666717529297 0 L 51.46666717529297 0 45.46666717529297 12 Z" fill="#274b6d"></path></g></g><g  class="highcharts-axis-labels highcharts-xaxis-labels"><text opacity="1" y="238" style="width:96px;color:#666666;cursor:default;font-size:9px;font-family:arial;font-weight:normal;font-style:normal;fill:#666666;" text-anchor="middle" x="73.95833333333333"><tspan>1990</tspan></text><text opacity="1" y="238" style="width:96px;color:#666666;cursor:default;font-size:9px;font-family:arial;font-weight:normal;font-style:normal;fill:#666666;" text-anchor="middle" x="189.79166666666666"><tspan>2005</tspan></text><text opacity="1" y="238" style="width:96px;color:#666666;cursor:default;font-size:9px;font-family:arial;font-weight:normal;font-style:normal;fill:#666666;" text-anchor="middle" x="305.625"><tspan>2007</tspan></text><text opacity="1" y="238" style="width:96px;color:#666666;cursor:default;font-size:9px;font-family:arial;font-weight:normal;font-style:normal;fill:#666666;" text-anchor="middle" x="421.4583333333333"><tspan>2009</tspan></text><text opacity="1" y="238" style="width:96px;color:#666666;cursor:default;font-size:9px;font-family:arial;font-weight:normal;font-style:normal;fill:#666666;" text-anchor="middle" x="537.2916666666666"><tspan>2011</tspan></text><text opacity="1" y="238" style="width:96px;color:#666666;cursor:default;font-size:9px;font-family:arial;font-weight:normal;font-style:normal;fill:#666666;" text-anchor="middle" x="653.125"><tspan>2013</tspan></text></g><g  class="highcharts-axis-labels highcharts-yaxis-labels"><text opacity="1" y="167.83333333333337" style="width:228px;color:#666666;cursor:default;font-size:9px;font-family:arial;font-weight:normal;font-style:normal;fill:#666666;" text-anchor="end" x="30">20M</text><text opacity="1" y="111.16666666666663" style="width:228px;color:#666666;cursor:default;font-size:9px;font-family:arial;font-weight:normal;font-style:normal;fill:#666666;" text-anchor="end" x="30">30M</text><text opacity="1" y="54.5" style="width:228px;color:#666666;cursor:default;font-size:9px;font-family:arial;font-weight:normal;font-style:normal;fill:#666666;" text-anchor="end" x="30">40M</text><text opacity="1" y="224.5" style="width:228px;color:#666666;cursor:default;font-size:9px;font-family:arial;font-weight:normal;font-style:normal;fill:#666666;" text-anchor="end" x="30">10M</text></g><g transform="translate(0,-9999)" style="cursor:default;padding:0;white-space:nowrap;"  class="highcharts-tooltip"><path transform="translate(1, 1)" stroke-width="5" stroke-opacity="0.049999999999999996" stroke="black"  d="M 3 0 L 13 0 C 16 0 16 0 16 3 L 16 13 C 16 16 16 16 13 16 L 3 16 C 0 16 0 16 0 13 L 0 3 C 0 0 0 0 3 0" fill="none"></path><path transform="translate(1, 1)" stroke-width="3" stroke-opacity="0.09999999999999999" stroke="black"  d="M 3 0 L 13 0 C 16 0 16 0 16 3 L 16 13 C 16 16 16 16 13 16 L 3 16 C 0 16 0 16 0 13 L 0 3 C 0 0 0 0 3 0" fill="none"></path><path transform="translate(1, 1)" stroke-width="1" stroke-opacity="0.15" stroke="black"  d="M 3 0 L 13 0 C 16 0 16 0 16 3 L 16 13 C 16 16 16 16 13 16 L 3 16 C 0 16 0 16 0 13 L 0 3 C 0 0 0 0 3 0" fill="none"></path><path d="M 3 0 L 13 0 C 16 0 16 0 16 3 L 16 13 C 16 16 16 16 13 16 L 3 16 C 0 16 0 16 0 13 L 0 3 C 0 0 0 0 3 0" fill="rgb(249, 249, 249)" fill-opacity=" .85"></path><text y="21" style="font-size:12px;font-weight:normal;color:#333333;width:nanpx;fill:#333333;"  x="8"></text></g></svg>